<svg width="300px" height="300px" viewBox="0 0 30 30" xml:space="preserve" xmlns="http://www.w3.org/2000/svg">
    <g transform="translate(-17 -27)">
        <path fill="white" d="m29.759 56.492c-2.9079-0.42522-5.6917-1.7099-7.8059-3.6023-0.3267-0.29243-0.62627-0.53169-0.6657-0.53169-0.03943 0-0.0717 0.32198-0.0717 0.71552v0.71552l-0.2918 0.29051c-0.39261 0.39086-0.83398 0.37148-1.2628-0.05545l-0.3475-0.34596v-4.4947l0.37397-0.31328 0.37397-0.31327 4.6233 0.07291 0.22703 0.27941c0.31617 0.38911 0.28938 0.91201-0.06477 1.2646l-0.2918 0.29051-2.329 8e-3 0.7626 0.72137c2.6226 2.4808 6.4388 3.7864 10.018 3.4273 3.0831-0.3093 5.7612-1.5879 7.9455-3.7935 3.2263-3.2577 4.4504-7.6821 3.3679-12.173l-0.20105-0.83401 0.2051-0.31164c0.1128-0.1714 0.3336-0.36992 0.49066-0.44116l0.28556-0.12954 0.37663 0.15532c0.44262 0.18252 0.60732 0.52258 0.87264 1.8018 0.64935 3.1308 0.21371 6.4368-1.2359 9.3791-2.2142 4.4942-6.3766 7.5048-11.297 8.1706-1.3535 0.18316-2.9959 0.20204-4.0584 0.04667zm0.64048-4.192c-0.2125-0.09195-0.3978-0.18307-0.41177-0.20249-0.01397-0.01941-0.0541-1.6864-0.08916-3.7043l-0.06376-3.669-5.2766-0.0637-0.24462-0.3096c-0.13454-0.17028-0.24462-0.44944-0.24462-0.62034 0-0.44668 7.9061-12.206 8.3461-12.414l0.32148-0.1518 0.42154 0.17535c0.23185 0.09644 0.43298 0.19138 0.44694 0.21098 0.01398 0.0196 0.0541 1.6867 0.08916 3.7047l0.06376 3.669 5.2206 0.06392 0.56448 0.52785-0.04336 0.41425-0.04336 0.41425-3.9415 5.8764c-2.1679 3.232-4.0637 5.9616-4.2131 6.0657-0.32611 0.2274-0.4039 0.22851-0.9022 0.01288zm-12.559-5.8949c-0.72603-0.72281-1.1212-4.4903-0.72558-6.9185 0.99232-6.0914 5.5688-10.814 11.799-12.175 1.2825-0.28026 4.4866-0.27898 5.7747 0.0022 2.6199 0.57214 5.1482 1.8442 7.0513 3.5477 0.33654 0.30125 0.64415 0.54772 0.68358 0.54772 0.03945 0 0.0717-0.34861 0.0717-0.7747v-0.7747l0.2918-0.29051c0.3926-0.39087 0.83398-0.37149 1.2628 0.05545l0.34751 0.34596v2.1339c0 1.3118-0.05085 2.2451-0.13199 2.4224-0.22146 0.48391-0.5701 0.55122-2.8548 0.55122h-2.1435l-0.3475-0.34596c-0.42884-0.42694-0.44831-0.86636-0.0557-1.2572l0.2918-0.29051h2.199l-0.46994-0.48383c-0.77084-0.79362-2.301-1.8698-3.442-2.4208-6.3946-3.0878-14.018-0.50686-17.221 5.83-1.2901 2.5524-1.6788 5.5296-1.0781 8.2592 0.10027 0.45567 0.21286 0.99912 0.2502 1.2077l0.0679 0.37917-0.36217 0.36056c-0.43704 0.4351-0.87949 0.46627-1.2588 0.08868z" style="stroke-width:.11862"/>
    </g>
</svg>
